<svg width="24" height="24" viewBox="0 0 24 24" fill="none" xmlns="http://www.w3.org/2000/svg">
<path d="M20.1152 16.3652C20.0762 16.9824 19.9355 17.584 19.6934 18.1699C19.4512 18.7559 19.084 19.248 18.5918 19.6465C18.1074 20.0371 17.4941 20.2324 16.752 20.2324C16.3848 20.2324 16.0215 20.1738 15.6621 20.0566C15.3105 19.9395 14.9277 19.7324 14.5137 19.4355C14.0996 19.1309 13.5879 18.6738 12.9785 18.0645C12.1973 18.8066 11.4004 19.3574 10.5879 19.7168C9.7832 20.0762 9.01367 20.2559 8.2793 20.2559C7.43555 20.2559 6.67383 20.0566 5.99414 19.6582C5.32227 19.2598 4.80273 18.7363 4.43555 18.0879C4.06836 17.4395 3.88477 16.7441 3.88477 16.002C3.88477 15.5645 3.95508 15.0918 4.0957 14.584C4.24414 14.0684 4.58789 13.4785 5.12695 12.8145C5.67383 12.1426 6.4668 11.5254 7.50586 10.9629C7.10742 10.2754 6.80273 9.66602 6.5918 9.13477C6.38867 8.60352 6.28711 8.0293 6.28711 7.41211C6.28711 6.81836 6.40039 6.2832 6.62695 5.80664C6.85352 5.33008 7.14258 4.94727 7.49414 4.6582C7.85352 4.36133 8.25977 4.13477 8.71289 3.97852C9.16602 3.82227 9.62305 3.74414 10.084 3.74414C10.7637 3.74414 11.3535 3.89648 11.8535 4.20117C12.3613 4.49805 12.748 4.88086 13.0137 5.34961C13.2793 5.81836 13.4121 6.30664 13.4121 6.81445C13.4121 7.48633 13.1699 8.1543 12.6855 8.81836C12.2012 9.47461 11.4941 10.0449 10.5645 10.5293L14.1855 15.2637C14.623 14.7168 15.0059 14.166 15.334 13.6113C15.6699 13.0566 15.8379 12.5176 15.8379 11.9941C15.8379 11.8223 15.7598 11.6074 15.6035 11.3496C15.4551 11.0918 15.127 10.9629 14.6191 10.9629V9.88477H19.4355V10.9629C19.0059 11.0566 18.6582 11.1895 18.3926 11.3613C18.1348 11.5332 17.9004 11.7559 17.6895 12.0293C17.4863 12.2949 17.1426 12.8105 16.6582 13.5762L16.1543 14.3965C15.7246 15.0762 15.2988 15.6504 14.877 16.1191C15.252 16.666 15.6895 17.1621 16.1895 17.6074C16.6895 18.0449 17.1582 18.2637 17.5957 18.2637C17.8066 18.2637 18.0098 18.209 18.2051 18.0996C18.4004 17.9824 18.5723 17.7793 18.7207 17.4902C18.8691 17.1934 18.9707 16.8184 19.0254 16.3652H20.1152ZM11.8066 6.76758C11.8066 6.44727 11.7441 6.14648 11.6191 5.86523C11.502 5.58398 11.3184 5.35742 11.0684 5.18555C10.8184 5.00586 10.5215 4.91602 10.1777 4.91602C9.68555 4.91602 9.29883 5.07617 9.01758 5.39648C8.73633 5.70898 8.5957 6.06055 8.5957 6.45117C8.5957 7.36523 9.0332 8.41992 9.9082 9.61523C10.4785 9.18555 10.9355 8.76758 11.2793 8.36133C11.6309 7.94727 11.8066 7.41602 11.8066 6.76758ZM12.2871 17.2559L8.16211 11.9004C6.99023 12.6035 6.4043 13.4746 6.4043 14.5137C6.4043 15.1074 6.56055 15.6973 6.87305 16.2832C7.18555 16.8613 7.60352 17.3418 8.12695 17.7246C8.65039 18.0996 9.21289 18.2871 9.81445 18.2871C10.2988 18.2871 10.7324 18.1895 11.1152 17.9941C11.5059 17.791 11.8965 17.5449 12.2871 17.2559Z" fill="white"/>
</svg>
