<svg width="24" height="24" viewBox="0 0 24 24" fill="none" xmlns="http://www.w3.org/2000/svg">
<path d="M19.0679 20.4H16.8599L14.9879 18.408C13.6679 20.016 11.8199 20.592 10.1639 20.592C6.94789 20.592 4.93188 18.84 4.93188 15.888C4.93188 13.488 6.61188 12.264 8.43588 11.304C7.35588 10.08 6.39588 8.68799 6.39588 7.34399C6.39588 5.03999 8.14788 3.40799 10.6439 3.40799C13.1159 3.40799 14.8439 4.96799 14.8439 7.17599C14.8439 9.67199 13.1159 10.896 11.2679 11.856L14.7479 15.672L15.3719 14.736C16.5239 12.84 17.6999 12.624 18.8999 12.624V14.472C17.8679 14.472 17.0039 15.024 16.5479 15.816L15.9239 16.944L19.0679 20.4ZM8.24388 7.39199C8.24388 8.44799 9.17988 9.55199 10.0439 10.488C11.6519 9.67199 13.0199 8.83199 13.0199 7.22399C13.0199 5.90399 12.0359 4.96799 10.6439 4.96799C9.22788 4.96799 8.24388 5.97599 8.24388 7.39199ZM10.1639 18.864C11.3399 18.864 12.7319 18.432 13.7879 17.088L9.68388 12.672C8.12388 13.464 6.82788 14.328 6.82788 15.912C6.82788 17.784 8.02788 18.864 10.1639 18.864Z" fill="white"/>
</svg>
