<svg width="24" height="24" viewBox="0 0 24 24" fill="none" xmlns="http://www.w3.org/2000/svg">
<path d="M20.2321 10.308C20.2321 10.404 20.1761 10.46 20.0641 10.476C19.9681 10.492 19.6001 10.516 18.9601 10.548C18.4641 10.564 18.1441 10.62 18.0001 10.716C17.8561 10.812 17.7521 11.06 17.6881 11.46C17.3201 13.46 16.6241 15.26 15.6001 16.86C15.9201 17.372 16.1521 17.772 16.2961 18.06C16.6801 18.828 17.0481 19.308 17.4001 19.5C17.7681 19.692 18.4961 19.812 19.5841 19.86C19.9201 19.876 20.0881 19.964 20.0881 20.124C20.0881 20.252 19.9761 20.316 19.7521 20.316C19.3521 20.316 18.6161 20.292 17.5441 20.244C17.1761 20.228 16.9281 20.22 16.8001 20.22C16.2721 20.22 15.6961 20.252 15.0721 20.316C15.0081 20.14 14.7361 19.628 14.2561 18.78L14.1361 18.588C12.8561 19.948 11.1841 20.628 9.12007 20.628C7.53607 20.628 6.24807 20.204 5.25607 19.356C4.26407 18.508 3.76807 17.404 3.76807 16.044C3.76807 13.772 5.17607 11.98 7.99207 10.668C7.96007 10.62 7.85607 10.508 7.68007 10.332C6.86407 9.48401 6.35207 8.89201 6.14407 8.55601C5.95207 8.20401 5.85607 7.74801 5.85607 7.18801C5.85607 6.05201 6.22407 5.13201 6.96007 4.42801C7.71207 3.72401 8.68007 3.37201 9.86407 3.37201C11.0001 3.37201 11.9121 3.66801 12.6001 4.26001C13.3041 4.83601 13.6561 5.59601 13.6561 6.54001C13.6561 8.06001 12.5441 9.26801 10.3201 10.164C10.4161 10.276 10.8161 10.74 11.5201 11.556C12.9281 13.172 14.1681 14.756 15.2401 16.308C16.3761 14.484 16.9441 12.788 16.9441 11.22C16.9441 10.868 16.8721 10.668 16.7281 10.62C16.5841 10.556 16.0721 10.524 15.1921 10.524C14.7121 10.524 14.4721 10.444 14.4721 10.284C14.4721 10.156 14.6081 10.092 14.8801 10.092H18.7681C19.5041 10.092 19.9041 10.1 19.9681 10.116C20.1441 10.164 20.2321 10.228 20.2321 10.308ZM11.8081 6.78001C11.8081 5.88401 11.6081 5.15601 11.2081 4.59601C10.8241 4.03601 10.3201 3.75601 9.69607 3.75601C9.05607 3.75601 8.52807 3.97201 8.11207 4.40401C7.69607 4.82001 7.48807 5.34801 7.48807 5.98801C7.48807 7.17201 8.35207 8.46001 10.0801 9.85201C11.2321 9.22801 11.8081 8.20401 11.8081 6.78001ZM13.8481 18.108C12.8721 16.412 11.0081 14.028 8.25607 10.956C7.47207 11.548 6.91207 12.156 6.57607 12.78C6.25607 13.404 6.09607 14.156 6.09607 15.036C6.09607 16.396 6.47207 17.532 7.22407 18.444C7.99207 19.356 8.94407 19.812 10.0801 19.812C11.5041 19.812 12.7601 19.244 13.8481 18.108Z" fill="white"/>
</svg>
