<svg width="24" height="24" viewBox="0 0 24 24" fill="none" xmlns="http://www.w3.org/2000/svg">
<path d="M10.4399 20.544C7.58393 20.544 2.49593 19.776 1.75193 15.432C1.22393 12.624 3.76793 10.44 6.98393 10.608L1.55993 5.97599L1.12793 3.45599H16.1279L16.6559 6.47999H6.50393L16.2719 14.736C17.4239 13.512 18.2399 12.072 18.6719 10.656L21.2399 13.056C20.6639 14.616 19.8719 15.888 18.9119 16.92L22.8719 20.256H18.3839L16.6559 18.792C14.7359 19.992 12.5519 20.544 10.4399 20.544ZM10.0799 17.544C11.5439 17.544 12.8639 17.16 13.9919 16.512L8.61593 11.952C6.16793 11.544 4.17593 12.576 4.51193 14.328C4.89593 16.608 6.91193 17.544 10.0799 17.544Z" fill="white"/>
</svg>
