<svg width="24" height="24" viewBox="0 0 24 24" fill="none" xmlns="http://www.w3.org/2000/svg">
<path d="M3.99609 16.104C3.99609 13.776 5.48409 12.312 7.74009 11.496L7.66809 11.4C6.94809 10.584 6.03609 9.336 6.03609 7.608C6.03609 4.92 7.98009 3.336 10.7161 3.336C13.4761 3.336 15.0841 4.896 15.0841 6.936C15.0841 9.024 13.4281 10.272 10.9081 11.088L15.6361 16.32C16.1161 15.408 16.4041 14.376 16.4041 13.272C16.4041 12.048 15.6601 11.808 14.2441 11.76V11.04H19.8601V11.76C18.2761 11.808 17.6761 12.072 17.4361 13.488C17.2201 14.736 16.7881 15.912 16.1881 16.92L17.3641 18.216C18.2281 19.2 18.9481 19.608 20.0041 19.704V20.424H16.3561C15.6841 20.04 15.1561 19.56 14.5081 18.888C13.2121 19.992 11.5321 20.664 9.51609 20.664C6.78009 20.664 3.99609 19.248 3.99609 16.104ZM10.6921 19.344C11.9161 19.344 13.0201 18.936 13.9321 18.264L13.8601 18.168L8.17209 11.976C6.92409 12.72 6.56409 14.04 6.56409 15.288C6.56409 17.832 8.22009 19.344 10.6921 19.344ZM8.29209 6.696C8.29209 8.448 9.44409 9.48 10.2601 10.368L10.4761 10.608C12.4201 9.792 12.9001 8.496 12.9001 6.84C12.9001 5.4 12.2281 4.104 10.5961 4.104C9.18009 4.104 8.29209 5.112 8.29209 6.696Z" fill="white"/>
</svg>
