<svg width="24" height="24" viewBox="0 0 24 24" fill="none" xmlns="http://www.w3.org/2000/svg">
<path d="M17.5681 17.472L19.7521 19.44L18.1201 21.048L16.0561 19.056C14.5921 20.28 12.6481 21.048 10.4161 21.048C8.37612 21.048 6.81612 20.616 5.78412 19.752C4.75212 18.864 4.22412 17.784 4.22412 16.488C4.22412 15.192 4.60812 14.184 5.35212 13.44C6.12012 12.696 7.10412 12.096 8.28012 11.64C7.48812 10.776 6.96012 10.032 6.72012 9.432C6.48012 8.832 6.36012 8.208 6.36012 7.56C6.36012 6.24 6.84012 5.16 7.80012 4.272C8.76012 3.384 9.98412 2.952 11.4961 2.952C14.3041 2.952 16.4161 4.416 16.4161 7.296C16.4161 9.312 14.8801 10.944 11.7841 12.072L15.6961 15.792C16.6321 14.328 17.0881 12.528 17.1601 10.992L19.7761 11.328C19.6561 13.464 18.8881 15.72 17.5681 17.472ZM8.76012 7.92C8.76012 8.952 9.43212 9.792 10.4161 10.776C12.8401 9.984 13.8001 9.096 13.8001 7.728C13.8001 6.456 12.8401 5.568 11.2321 5.568C9.67212 5.568 8.76012 6.552 8.76012 7.92ZM6.79212 15.888C6.79212 17.496 8.25612 18.576 10.6801 18.576C12.1441 18.576 13.3201 18.12 14.2801 17.376L9.62412 12.96C7.89612 13.608 6.79212 14.424 6.79212 15.888Z" fill="white"/>
</svg>
