<svg width="24" height="24" viewBox="0 0 24 24" fill="none" xmlns="http://www.w3.org/2000/svg">
<path d="M9.4321 20.904C8.5521 20.904 7.8001 20.712 7.1761 20.328C6.5521 19.928 6.0721 19.408 5.7361 18.768C5.4161 18.112 5.2561 17.408 5.2561 16.656C5.2561 15.456 5.5761 14.368 6.2161 13.392C6.8721 12.4 7.7281 11.576 8.7841 10.92C8.9601 10.808 8.9921 10.656 8.8801 10.464C8.4161 9.69601 8.0641 9.02401 7.8241 8.44801C7.5841 7.85601 7.4641 7.24801 7.4641 6.62401C7.4641 5.96801 7.6161 5.37601 7.9201 4.84801C8.2401 4.32001 8.6881 3.89601 9.2641 3.57601C9.8401 3.25601 10.5041 3.09601 11.2561 3.09601C11.9281 3.09601 12.4961 3.24801 12.9601 3.55201C13.4241 3.85601 13.7761 4.24001 14.0161 4.70401C14.2561 5.15201 14.3761 5.60801 14.3761 6.07201C14.3761 6.88801 14.1201 7.63201 13.6081 8.30401C13.0961 8.97601 12.2721 9.60801 11.1361 10.2C10.9441 10.328 10.9041 10.48 11.0161 10.656L14.0641 15.552C14.1441 15.664 14.2241 15.72 14.3041 15.72C14.3841 15.704 14.4561 15.64 14.5201 15.528C14.6961 15.16 14.8641 14.784 15.0241 14.4C15.2001 14 15.3361 13.68 15.4321 13.44C15.6081 12.976 15.6641 12.64 15.6001 12.432C15.5361 12.208 15.3441 12.072 15.0241 12.024L14.1841 11.904C13.9761 11.888 13.8721 11.792 13.8721 11.616C13.8721 11.456 13.9841 11.376 14.2081 11.376H18.4081C18.6321 11.376 18.7441 11.464 18.7441 11.64C18.7441 11.816 18.6401 11.912 18.4321 11.928L17.9761 11.976C17.6241 12.008 17.2881 12.136 16.9681 12.36C16.6641 12.584 16.3841 13 16.1281 13.608C15.9841 13.96 15.8081 14.376 15.6001 14.856C15.3921 15.336 15.1761 15.8 14.9521 16.248C14.8241 16.52 14.8321 16.784 14.9761 17.04L16.3681 19.272C16.5281 19.512 16.6641 19.696 16.7761 19.824C16.9041 19.952 17.0641 20.024 17.2561 20.04L18.3121 20.136C18.5041 20.152 18.6001 20.248 18.6001 20.424C18.6001 20.6 18.4881 20.688 18.2641 20.688H15.8161C15.5121 20.688 15.2801 20.56 15.1201 20.304L14.0161 18.576C13.8721 18.352 13.7201 18.344 13.5601 18.552C12.9041 19.4 12.2241 20.008 11.5201 20.376C10.8321 20.728 10.1361 20.904 9.4321 20.904ZM10.7761 9.69601C11.5121 9.24801 12.0561 8.70401 12.4081 8.06401C12.7761 7.42401 12.9601 6.79201 12.9601 6.16801C12.9601 5.78401 12.9041 5.40801 12.7921 5.04001C12.6961 4.67201 12.5201 4.36801 12.2641 4.12801C12.0081 3.87201 11.6321 3.74401 11.1361 3.74401C10.4801 3.74401 9.9521 3.99201 9.5521 4.48801C9.1681 4.98401 8.9761 5.52801 8.9761 6.12001C8.9761 6.64801 9.0721 7.15201 9.2641 7.63201C9.4561 8.11201 9.8081 8.76001 10.3201 9.57601C10.4161 9.78401 10.5681 9.82401 10.7761 9.69601ZM9.7441 19.776C10.3041 19.776 10.8641 19.64 11.4241 19.368C11.9841 19.096 12.5361 18.624 13.0801 17.952C13.2561 17.68 13.2641 17.408 13.1041 17.136L9.5761 11.568C9.4321 11.376 9.2721 11.344 9.0961 11.472C8.3281 12.016 7.7601 12.688 7.3921 13.488C7.0241 14.288 6.8401 15.184 6.8401 16.176C6.8401 17.168 7.0721 18.016 7.5361 18.72C8.0161 19.424 8.7521 19.776 9.7441 19.776Z" fill="white"/>
</svg>
