<svg width="24" height="24" viewBox="0 0 24 24" fill="none" xmlns="http://www.w3.org/2000/svg">
<path d="M21.936 9.012C21.104 9.124 20.352 9.396 19.68 9.828C19.008 10.244 18.368 10.764 17.76 11.388C17.168 11.996 16.584 12.676 16.008 13.428C15.432 14.164 14.824 14.9 14.184 15.636C14.408 15.924 14.664 16.26 14.952 16.644C15.24 17.012 15.6 17.42 16.032 17.868C16.448 18.3 16.864 18.652 17.28 18.924C17.712 19.196 18.24 19.332 18.864 19.332C19.184 19.332 19.48 19.268 19.752 19.14C20.04 19.012 20.304 18.852 20.544 18.66C20.784 18.468 21 18.26 21.192 18.036C21.384 17.812 21.536 17.604 21.648 17.412L21.864 17.508C21.752 17.828 21.544 18.196 21.24 18.612C20.952 19.012 20.6 19.388 20.184 19.74C19.768 20.092 19.296 20.38 18.768 20.604C18.256 20.828 17.72 20.94 17.16 20.94C16.632 20.94 16.144 20.844 15.696 20.652C15.248 20.476 14.824 20.228 14.424 19.908C14.04 19.588 13.68 19.228 13.344 18.828C13.008 18.412 12.704 17.988 12.432 17.556C12.224 17.86 11.936 18.204 11.568 18.588C11.2 18.972 10.768 19.332 10.272 19.668C9.79197 20.004 9.25597 20.284 8.66397 20.508C8.07197 20.716 7.44797 20.82 6.79197 20.82C6.05596 20.82 5.39197 20.716 4.79997 20.508C4.20796 20.284 3.71196 19.98 3.31196 19.596C2.91196 19.196 2.59996 18.732 2.37596 18.204C2.16796 17.676 2.06396 17.124 2.06396 16.548C2.06396 15.876 2.19996 15.26 2.47196 14.7C2.75996 14.124 3.12796 13.612 3.57596 13.164C4.03997 12.7 4.55196 12.292 5.11196 11.94C5.67196 11.572 6.22397 11.252 6.76797 10.98C6.41597 10.612 6.08797 10.284 5.78396 9.996C5.47996 9.692 5.21597 9.38 4.99197 9.06C4.76796 8.74 4.58396 8.388 4.43997 8.004C4.31196 7.62 4.24797 7.164 4.24797 6.636C4.24797 6.108 4.36796 5.628 4.60796 5.196C4.86397 4.748 5.18396 4.372 5.56796 4.068C5.96796 3.748 6.40797 3.5 6.88797 3.324C7.38397 3.148 7.87996 3.06 8.37596 3.06C8.80796 3.06 9.23197 3.124 9.64796 3.252C10.064 3.38 10.432 3.572 10.752 3.828C11.088 4.068 11.36 4.38 11.568 4.764C11.776 5.148 11.88 5.596 11.88 6.108C11.88 6.62 11.768 7.084 11.544 7.5C11.32 7.916 11.056 8.284 10.752 8.604C10.464 8.908 10.168 9.164 9.86397 9.372C9.55997 9.58 9.32797 9.732 9.16797 9.828C9.66397 10.212 10.12 10.62 10.536 11.052C10.952 11.468 11.36 11.9 11.76 12.348C12.208 12.86 12.616 13.38 12.984 13.908C13.368 14.436 13.696 14.924 13.968 15.372C14.336 14.908 14.68 14.444 15 13.98C15.336 13.516 15.624 13.076 15.864 12.66C16.12 12.244 16.32 11.868 16.464 11.532C16.608 11.18 16.68 10.9 16.68 10.692C16.68 10.34 16.584 10.068 16.392 9.876C16.216 9.684 15.976 9.54 15.672 9.444C15.368 9.348 15.032 9.292 14.664 9.276C14.296 9.244 13.928 9.22 13.56 9.204V8.916L21.936 8.724V9.012ZM10.128 6.588C10.128 6.22 10.072 5.86 9.95997 5.508C9.86397 5.14 9.71996 4.82 9.52797 4.548C9.33597 4.26 9.10397 4.028 8.83197 3.852C8.55997 3.676 8.26397 3.588 7.94397 3.588C7.65597 3.588 7.40797 3.652 7.19997 3.78C6.99197 3.908 6.82397 4.068 6.69596 4.26C6.56796 4.452 6.47196 4.66 6.40797 4.884C6.34397 5.108 6.31196 5.316 6.31196 5.508C6.31196 6.02 6.35997 6.42 6.45597 6.708C6.55197 6.996 6.71996 7.308 6.95997 7.644C7.23197 8.028 7.51996 8.364 7.82396 8.652C8.14396 8.924 8.51997 9.252 8.95197 9.636C9.36797 9.204 9.66397 8.756 9.83997 8.292C10.032 7.828 10.128 7.26 10.128 6.588ZM12.264 17.292C12.056 16.924 11.856 16.604 11.664 16.332C11.472 16.044 11.272 15.772 11.064 15.516C10.872 15.244 10.656 14.972 10.416 14.7C10.192 14.412 9.93597 14.092 9.64796 13.74C9.48797 13.548 9.28797 13.332 9.04797 13.092C8.82397 12.852 8.58396 12.62 8.32797 12.396C8.08797 12.156 7.84797 11.932 7.60797 11.724C7.38397 11.516 7.19196 11.34 7.03196 11.196C6.75996 11.42 6.47997 11.684 6.19197 11.988C5.90396 12.292 5.63996 12.628 5.39996 12.996C5.15996 13.364 4.95996 13.772 4.79997 14.22C4.65597 14.652 4.58397 15.108 4.58397 15.588C4.58397 16.068 4.66396 16.524 4.82396 16.956C4.98396 17.388 5.21597 17.772 5.51997 18.108C5.82397 18.428 6.18396 18.684 6.59997 18.876C7.01597 19.052 7.47197 19.14 7.96797 19.14C8.46396 19.14 8.90396 19.1 9.28797 19.02C9.67197 18.94 10.024 18.828 10.344 18.684C10.68 18.524 11 18.332 11.304 18.108C11.608 17.868 11.928 17.596 12.264 17.292Z" fill="white"/>
</svg>
