<svg width="24" height="24" viewBox="0 0 24 24" fill="none" xmlns="http://www.w3.org/2000/svg">
<path d="M9.8759 20.664C9.1399 20.664 8.4839 20.544 7.9079 20.304C7.3319 20.048 6.8439 19.704 6.4439 19.272C6.0599 18.84 5.7639 18.344 5.5559 17.784C5.3479 17.208 5.2439 16.592 5.2439 15.936C5.2439 15.024 5.4679 14.152 5.9159 13.32C6.3639 12.488 7.1399 11.776 8.2439 11.184C7.7639 10.56 7.3799 9.952 7.0919 9.36C6.8199 8.768 6.6839 8.136 6.6839 7.464C6.6839 6.856 6.7959 6.304 7.0199 5.808C7.2599 5.296 7.5799 4.856 7.9799 4.488C8.3799 4.12 8.8519 3.84 9.3959 3.648C9.9559 3.44 10.5479 3.336 11.1719 3.336C11.7319 3.336 12.2439 3.416 12.7079 3.576C13.1719 3.736 13.5799 3.944 13.9319 4.2C14.2999 4.456 14.6039 4.752 14.8439 5.088C15.0839 5.408 15.2679 5.736 15.3959 6.072L13.4519 7.08C13.2599 6.584 12.9639 6.184 12.5639 5.88C12.1639 5.56 11.6839 5.4 11.1239 5.4C10.5159 5.4 10.0199 5.592 9.6359 5.976C9.2679 6.344 9.0839 6.824 9.0839 7.416V7.584C9.0839 7.824 9.1159 8.056 9.1799 8.28C9.2439 8.504 9.3479 8.744 9.4919 9C9.6359 9.256 9.8199 9.544 10.0439 9.864C10.2839 10.168 10.5719 10.536 10.9079 10.968L12.7319 13.224L14.2439 15.216H14.3639C14.4759 14.624 14.5479 13.944 14.5799 13.176C14.6119 12.408 14.6359 11.688 14.6519 11.016H18.4199V13.056H16.6679C16.5719 13.728 16.4599 14.352 16.3319 14.928C16.2199 15.488 16.0279 16.104 15.7559 16.776L18.7559 20.376H15.8519L13.8359 17.976H13.6919C13.5159 18.792 13.0919 19.448 12.4199 19.944C11.7639 20.424 10.9159 20.664 9.8759 20.664ZM10.5479 18.528C11.0919 18.528 11.5799 18.424 12.0119 18.216C12.4599 17.992 12.8199 17.648 13.0919 17.184L9.3719 12.6C8.7639 13.032 8.3479 13.512 8.1239 14.04C7.8999 14.552 7.7879 15.104 7.7879 15.696V15.912C7.7879 16.728 8.0359 17.368 8.5319 17.832C9.0439 18.296 9.7159 18.528 10.5479 18.528Z" fill="white"/>
</svg>
