<svg width="24" height="24" viewBox="0 0 24 24" fill="none" xmlns="http://www.w3.org/2000/svg">
<path d="M14.64 13.56V11.568H17.856V14.544C17.856 15.184 17.784 15.76 17.64 16.272L19.104 17.544L17.304 19.704L16.104 18.648C15.032 19.432 13.464 19.824 11.4 19.824C9.816 19.824 8.544 19.672 7.584 19.368C6.64 19.064 5.952 18.56 5.52 17.856C5.104 17.152 4.896 16.2 4.896 15C4.896 13.624 5.144 12.64 5.64 12.048C6.136 11.44 6.712 11.112 7.368 11.064L7.416 10.968C7.016 10.568 6.744 10.152 6.6 9.71999C6.456 9.27199 6.384 8.71999 6.384 8.06399C6.384 6.73599 6.744 5.75999 7.464 5.13599C8.2 4.49599 9.512 4.17599 11.4 4.17599C12.84 4.17599 13.936 4.30399 14.688 4.55999C15.456 4.81599 15.976 5.24799 16.248 5.85599C16.536 6.44799 16.68 7.27199 16.68 8.32799V9.09599H13.176C13.208 8.32799 13.112 7.82399 12.888 7.58399C12.664 7.32799 12.184 7.19999 11.448 7.19999C10.808 7.19999 10.384 7.29599 10.176 7.488C9.968 7.67999 9.864 8.00799 9.864 8.47199C9.864 8.82399 9.944 9.13599 10.104 9.40799C10.264 9.67999 10.584 10.024 11.064 10.44L14.592 13.56H14.64ZM13.416 16.296L9.456 12.816C9.2 12.848 8.976 13.016 8.784 13.32C8.608 13.624 8.52 14.056 8.52 14.616C8.52 15.16 8.6 15.576 8.76 15.864C8.92 16.152 9.208 16.352 9.624 16.464C10.04 16.56 10.632 16.608 11.4 16.608C12.216 16.608 12.888 16.52 13.416 16.344V16.296Z" fill="white"/>
</svg>
