<svg width="24" height="24" viewBox="0 0 24 24" fill="none" xmlns="http://www.w3.org/2000/svg">
<path d="M16.998 20.4551L15.4277 18.7559C13.998 20.0215 12.0293 20.7363 10.0254 20.7363C6.68555 20.7363 4.35352 18.7676 4.35352 15.9551C4.35352 13.9746 5.43164 12.4512 7.66992 11.2676C8.00977 11.0918 8.2207 10.9746 8.31445 10.9395C6.80273 9.33398 6.2168 8.24414 6.2168 7.01367C6.2168 4.86914 8.04492 3.26367 10.4824 3.26367C12.9668 3.26367 14.7598 4.8457 14.7598 7.03711C14.7598 8.75977 13.7168 10.0137 11.1387 11.373L15.3223 15.8848C15.873 14.8535 16.1309 13.4707 16.1309 11.3848V10.8809H18.0762V11.3965C18.0762 13.9746 17.6074 15.8496 16.6816 17.3027L19.6465 20.4551H16.998ZM8.87695 12.498C7.13086 13.5645 6.43945 14.5137 6.43945 15.8145C6.43945 17.7012 7.96289 18.9785 10.2129 18.9785C11.7246 18.9785 13.2949 18.3691 14.1973 17.4082L9.43945 12.1934C9.28711 12.2637 8.98242 12.4277 8.87695 12.498ZM10.0137 10.1895C12.041 9.1582 12.791 8.31445 12.791 7.10742C12.791 5.81836 11.8652 4.91602 10.4941 4.91602C9.1582 4.91602 8.20898 5.8418 8.20898 7.13086C8.20898 8.05664 8.70117 8.87695 10.0137 10.1895Z" fill="white"/>
</svg>
