<svg width="24" height="24" viewBox="0 0 24 24" fill="none" xmlns="http://www.w3.org/2000/svg">
<path d="M9.96006 20.796C9.00006 20.796 8.10406 20.612 7.27206 20.244C6.44006 19.876 5.77606 19.34 5.28006 18.636C4.80006 17.932 4.56006 17.108 4.56006 16.164C4.56006 15.076 4.87206 14.14 5.49606 13.356C6.12006 12.556 6.98406 11.836 8.08806 11.196L9.26406 10.524L10.6801 12.06L9.52806 12.804C8.76006 13.316 8.17606 13.812 7.77606 14.292C7.37606 14.772 7.17606 15.356 7.17606 16.044C7.17606 16.844 7.45606 17.484 8.01606 17.964C8.59206 18.444 9.32006 18.684 10.2001 18.684C10.8721 18.684 11.4881 18.564 12.0481 18.324C12.6081 18.068 13.1121 17.692 13.5601 17.196L8.23206 10.956C7.51206 10.108 7.00806 9.41201 6.72006 8.86801C6.43206 8.30801 6.28806 7.69201 6.28806 7.02001C6.28806 6.28401 6.48806 5.62801 6.88806 5.05201C7.28806 4.47601 7.82406 4.02801 8.49606 3.70801C9.18406 3.37201 9.95206 3.20401 10.8001 3.20401C11.6001 3.20401 12.3281 3.34801 12.9841 3.63601C13.6561 3.92401 14.1841 4.35601 14.5681 4.93201C14.9521 5.49201 15.1441 6.16401 15.1441 6.94801C15.1441 7.87601 14.8561 8.71601 14.2801 9.46801C13.7201 10.204 12.9441 10.876 11.9521 11.484L10.8721 12.156L9.52806 10.5L10.5601 9.90001C11.2321 9.51601 11.7521 9.09201 12.1201 8.62801C12.4881 8.14801 12.6721 7.62801 12.6721 7.06801C12.6721 6.50801 12.4961 6.08401 12.1441 5.79601C11.7921 5.49201 11.3521 5.34001 10.8241 5.34001C10.2641 5.34001 9.80006 5.50801 9.43206 5.84401C9.08006 6.18001 8.90406 6.62801 8.90406 7.18801C8.90406 7.60401 9.01606 8.02001 9.24006 8.43601C9.48006 8.83601 9.83206 9.31601 10.2961 9.87601L14.3761 14.58C14.6001 14.836 14.7761 15.044 14.9041 15.204C14.9521 15.076 14.9921 14.956 15.0241 14.844C15.1041 14.62 15.1521 14.452 15.1681 14.34C15.2641 14.004 15.3361 13.628 15.3841 13.212C15.4481 12.796 15.4881 12.34 15.5041 11.844H18.1441C18.1121 12.916 17.9601 13.876 17.6881 14.724C17.4161 15.556 17.0321 16.332 16.5361 17.052L19.4401 20.412H16.2961L14.9761 18.828C14.2721 19.484 13.5041 19.98 12.6721 20.316C11.8401 20.636 10.9361 20.796 9.96006 20.796Z" fill="white"/>
</svg>
