<svg width="24" height="24" viewBox="0 0 24 24" fill="none" xmlns="http://www.w3.org/2000/svg">
<path d="M20.6161 17.724L20.7121 17.796C20.0881 19.668 18.5281 20.844 16.8241 20.844C15.1921 20.844 14.3521 20.172 13.2001 18.708L12.4321 17.748C11.4961 19.596 9.76809 20.844 7.77609 20.844C5.23209 20.844 3.28809 19.14 3.28809 16.452C3.28809 13.956 4.75209 12.228 7.41609 11.364L7.20009 11.1C5.88009 9.44401 5.42409 8.38801 5.42409 6.97201C5.42409 4.83601 7.17609 3.15601 10.1281 3.15601C11.6641 3.15601 13.2001 3.61201 14.2321 4.33201L12.8401 7.71601H12.6961C12.7201 5.24401 11.7601 3.66001 9.98409 3.66001C8.66409 3.66001 8.18409 4.38001 8.18409 5.10001C8.18409 5.96401 8.54409 6.63601 9.84009 8.24401L16.5361 16.692C17.5441 17.988 18.2641 18.492 19.2001 18.492C19.7041 18.492 20.1841 18.3 20.6161 17.724ZM10.1041 18.684C11.0161 18.684 11.7601 18.324 12.2881 17.556L7.53609 11.532C6.48009 12.132 6.19209 13.068 6.19209 14.244C6.19209 16.668 7.82409 18.684 10.1041 18.684Z" fill="white"/>
</svg>
