<svg width="24" height="24" viewBox="0 0 24 24" fill="none" xmlns="http://www.w3.org/2000/svg">
<path d="M16.3321 20.544L14.1721 18.288C12.7801 19.848 11.2921 20.832 9.39607 20.832C6.18007 20.832 4.47607 18.672 4.47607 16.488C4.47607 14.28 5.67607 13.08 7.47607 11.736L7.71607 11.544L7.40407 11.208C6.61207 10.368 5.36407 9.072 5.36407 7.416C5.36407 4.656 7.64407 3.168 9.75607 3.168C12.3241 3.168 14.2681 4.776 14.2681 7.32C14.2681 9 13.0681 10.2 11.8681 11.088L11.0041 11.736L14.1721 15.024L17.9641 10.8V13.896L15.6601 16.56L19.5241 20.544H16.3321ZM9.42007 18.672C10.7161 18.672 11.6521 17.832 12.5881 16.8L12.6601 16.704L9.20407 13.08L8.34007 13.728C7.52407 14.352 6.90007 15.12 6.90007 16.296C6.90007 17.448 7.86007 18.672 9.42007 18.672ZM7.69207 7.272C7.69207 8.232 8.43607 9.072 8.98807 9.648L9.51607 10.224L10.6681 9.36C11.6761 8.616 11.9401 7.968 11.9401 7.248C11.9401 6.12 11.0281 5.184 9.78007 5.184C8.79607 5.184 7.69207 5.928 7.69207 7.272Z" fill="white"/>
</svg>
