<svg width="24" height="24" viewBox="0 0 24 24" fill="none" xmlns="http://www.w3.org/2000/svg">
<path d="M18.0841 19.608L15.7081 17.616C15.2281 18.864 13.5481 20.76 10.2601 20.76C6.97207 20.76 4.47607 19.032 4.47607 15.792C4.47607 12.72 6.99607 11.184 7.74007 10.728C6.82807 9.86399 6.06007 8.63999 6.06007 7.19999C6.06007 4.82399 8.00407 3.23999 10.5721 3.23999C13.0441 3.23999 14.8441 4.55999 15.2521 7.15199L13.0681 7.65599C12.7561 6.23999 12.0601 5.35199 10.5481 5.35199C9.13207 5.35199 8.41207 6.14399 8.41207 7.22399C8.41207 8.15999 9.01207 8.83199 9.73207 9.45599L14.1001 13.248H14.1481V10.608H16.2601V15.096L19.5241 17.904L18.0841 19.608ZM14.0281 16.032L9.30007 11.976C7.95607 12.624 6.75607 13.8 6.75607 15.552C6.75607 17.496 8.26807 18.552 10.3081 18.552C12.3481 18.552 13.6921 17.304 14.0281 16.032Z" fill="white"/>
</svg>
