<svg width="24" height="24" viewBox="0 0 24 24" fill="none" xmlns="http://www.w3.org/2000/svg">
<path d="M10.524 20.244C8.38001 20.244 6.70801 19.86 5.50801 19.092C4.30801 18.308 3.70801 17.148 3.70801 15.612C3.70801 14.46 4.03601 13.548 4.69201 12.876C5.36401 12.188 6.27601 11.756 7.42801 11.58V11.388C6.38801 11.228 5.60401 10.828 5.07601 10.188C4.54801 9.54801 4.28401 8.78801 4.28401 7.90801C4.28401 6.51601 4.79601 5.47601 5.82001 4.78801C6.86001 4.10001 8.30801 3.75601 10.164 3.75601H13.5V6.10801H9.82801C8.77201 6.10801 8.01201 6.28401 7.54801 6.63601C7.08401 6.97201 6.85201 7.54801 6.85201 8.36401C6.85201 9.18001 7.11601 9.75601 7.64401 10.092C8.17201 10.428 8.92401 10.596 9.90001 10.596H20.292V12.756H9.42001C8.44401 12.756 7.68401 12.956 7.14001 13.356C6.59601 13.74 6.32401 14.396 6.32401 15.324C6.32401 15.932 6.46001 16.428 6.73201 16.812C7.00401 17.18 7.45201 17.452 8.07601 17.628C8.70001 17.804 9.54801 17.892 10.62 17.892C11.756 17.892 12.652 17.788 13.308 17.58C13.964 17.372 14.428 17.02 14.7 16.524C14.988 16.028 15.132 15.364 15.132 14.532V8.07601H17.676V14.412C17.676 15.612 17.428 16.652 16.932 17.532C16.436 18.396 15.66 19.068 14.604 19.548C13.548 20.012 12.188 20.244 10.524 20.244Z" fill="white"/>
</svg>
