<svg width="24" height="24" viewBox="0 0 24 24" fill="none" xmlns="http://www.w3.org/2000/svg">
<path d="M16.4161 20.556C16.2721 19.836 15.9601 19.164 15.5521 18.54C14.2321 20.004 12.4081 20.916 10.0321 20.916C7.03211 20.916 4.46411 19.236 4.46411 16.236C4.46411 14.004 5.71211 12.348 7.89611 11.364C6.93611 10.236 6.28811 8.98798 6.28811 7.54798C6.28811 5.14798 8.18411 3.08398 11.1361 3.08398C13.7761 3.08398 15.6241 4.54798 15.6241 7.01999C15.6241 8.89198 14.3761 10.428 11.9281 11.532C12.8641 12.348 13.9441 13.164 14.9761 14.052C15.2161 13.092 15.3361 12.036 15.3601 10.908L18.1441 12.276C17.9521 13.62 17.6161 14.892 17.1121 16.044C18.3601 17.364 19.3201 18.852 19.5361 20.556H16.4161ZM7.56011 15.948C7.56011 17.556 8.68811 18.54 10.3681 18.54C11.8561 18.54 13.0321 17.82 13.8721 16.62C12.5041 15.324 10.8241 14.124 9.38411 12.852C8.28011 13.716 7.56011 14.7 7.56011 15.948ZM9.19211 7.45198C9.19211 8.36399 9.67211 9.25198 10.4401 10.116C11.9041 9.44398 12.8401 8.60398 12.8401 7.28398C12.8401 6.17998 12.2161 5.45998 11.0881 5.45998C9.98411 5.45998 9.19211 6.27598 9.19211 7.45198Z" fill="white"/>
</svg>
